{"title":"Battle Los Angeles 2011 R5 XViD - IMAGiNE","uid":6288132,"size":1485910672,"categoryP":"video","categoryS":"movies","magnet":"?xt=urn:btih:0037fadb6eb0317fdb4015d0372c100865d679cb&amp;dn=Battle+Los+Angeles+2011+R5+XViD+-+IMAGiNE&amp;tr=udp%3A%2F%2Ftracker.openbittorrent.com%3A80&amp;tr=udp%3A%2F%2Fopen.demonii.com%3A1337&amp;tr=udp%3A%2F%2Ftracker.coppersurfer.tk%3A6969&amp;tr=udp%3A%2F%2Fexodus.desync.com%3A6969","seeders":1,"leechers":0,"uploader":"SAFCukO09","files":103,"time":1301691314,"description":" &lt;a href=&quot;http://3.bp.blogspot.com/-WOPfdn1iIAY/TYfVC-j6MlI/AAAAAAAANUM/v1X5BK8Qhmk/s320/battle_los_angeles_poster.jpg&quot; rel=&quot;nofollow&quot; target=&quot;_NEW&quot;&gt;http://3.bp.blogspot.com/-WOPfdn1iIAY/TYfVC-j6MlI/AAAAAAAANUM/v1X5BK8Qhmk/s320/battle_los_angeles_poster.jpg&lt;/a&gt;\n\n*********** ****    ****      ***      ******** *********** ****    *** **********\n\n          *+*     +*+*+* *+*+*+   *+* *+*   *+*    *+*    *+*     *+*+*   *+* *+*        \n\n          +*+     +*+ +*+*+ +*+  +*+   +*+  +*+           +*+     *+*+*+  +*+ +*+        \n\n          +$+     +$+  +*+  +$+ +$++*++$++* *$*           +$+     +$+ +*+ +$+ +$++*++$  \n\n          +$+     +$+       +$+ +$+     +$+ +$+   +$+$    +$+     +$+  +$+$+$ +$+        \n\n          $+$     $+$       $+$ $+$     $+$ $+$    $+$    $+$     $+$   $+$+$ $+$        \n\n      $$$$$$$$$$$ $$$       $$$ $$$     $$$  $$$$$$$$ $$$$$$$$$$$ $$$    $$$$ $$$$$$$$$$    \n\n                                               \n\n\n\n\n\n\n\n                          Another Fine Release Brought to you from - IMAGiNE                  \n\n                                               \n\n\n\n********************************************************************************************************************                                \n\n                            Battle Los Angeles 2011 R5 XViD - IMAGiNE\n\n********************************************************************************************************************\n\n\n\nRipper ...........:IMAGiNE                                         IMDB Rating.......:6.8/10                            \n\nVideo Codec.......:XVID                                            Release Date......:15/03/11\n\nAudio Codec.......:MP3                                             Theatre Date......:11/03/11\n\nAudio Bitrate.....:128                                             Runtime...........:1h 50mn\n\nSubtitles.........:NIL                                             Language..........:ENGLISH\n\nResolution........:720 x 304                                       IMDb URL.......... http://www.imdb.com/title/tt1217613/\n\n\n\n\n\nDETAILS:\n\n\n\nVideo\n\nID                               : 0\n\nFormat                           : MPEG-4 Visual\n\nFormat profile                   : Advanced Simple@L5\n\nFormat settings, BVOP            : Yes\n\nFormat settings, QPel            : No\n\nFormat settings, GMC             : No warppoints\n\nFormat settings, Matrix          : Default (MPEG)\n\nMuxing mode                      : Packed bitstream\n\nCodec ID                         : XVID\n\nCodec ID/Hint                    : XviD\n\nDuration                         : 1h 51mn\n\nBit rate                         : 1 629 Kbps\n\nWidth                            : 720 pixels\n\nHeight                           : 304 pixels\n\nDisplay aspect ratio             : 2.35:1\n\nFrame rate                       : 25.000 fps\n\nColor space                      : YUV\n\nChroma subsampling               : 4:2:0\n\nBit depth                        : 8 bits\n\nScan type                        : Progressive\n\nCompression mode                 : Lossy\n\nBits/(Pixel*Frame)               : 0.298\n\nStream size                      : 1.27 GiB (92%)\n\nWriting library                  : XviD 61\n\n\n\nAudio\n\nID                               : 1\n\nFormat                           : MPEG Audio\n\nFormat version                   : Version 1\n\nFormat profile                   : Layer 3\n\nCodec ID                         : 55\n\nCodec ID/Hint                    : MP3\n\nDuration                         : 1h 51mn\n\nBit rate mode                    : Constant\n\nBit rate                         : 128 Kbps\n\nChannel(s)                       : 2 channels\n\nSampling rate                    : 44.1 KHz\n\nCompression mode                 : Lossy\n\nStream size                      : 102 MiB (7%)\n\nAlignment                        : Split accross interleaves\n\nInterleave, duration             : 40 ms (1.00 video frame)\n\nInterleave, preload duration     : 500 ms\n\n\n\n\n\n\n\n\n\nSOURCES:\n\n\n\nVIDEO: DVD 9 ELEKTRI4KA ................ Thanks\n\nAUDIO: Thankd m8ty ;-)\n\n\n\nNOTES:\n\n\n\nHere we go with a really nice r5 of this..........Battle: Los Angeles\n\n\n\nSource was very nice as it was ,but we did a little bit of filtering....increased the colour,add\n\nmore sharpeness,cropped and resized,changed the brightness and contrast etc....\n\nAudio we just needed to sync to our rip ...and also its complete line inc credits.\n\n\n\nEnjoy folks ;-)\n\n","torrent":{"xt":"urn:btih:0037fadb6eb0317fdb4015d0372c100865d679cb","amp;dn":"Battle+Los+Angeles+2011+R5+XViD+-+IMAGiNE","amp;tr":["udp%3A%2F%2Ftracker.openbittorrent.com%3A80","udp%3A%2F%2Fopen.demonii.com%3A1337","udp%3A%2F%2Ftracker.coppersurfer.tk%3A6969","udp%3A%2F%2Fexodus.desync.com%3A6969"],"infoHash":"0037fadb6eb0317fdb4015d0372c100865d679cb","infoHashBuffer":{"type":"Buffer","data":[0,55,250,219,110,176,49,127,219,64,21,208,55,44,16,8,101,214,121,203]},"announce":[],"urlList":[]}}